<?xml version="1.0" standalone="no"?>
<!DOCTYPE svg PUBLIC "-//W3C//DTD SVG 20010904//EN"
 "http://www.w3.org/TR/2001/REC-SVG-20010904/DTD/svg10.dtd">
<svg version="1.0" xmlns="http://www.w3.org/2000/svg"
 width="1600.000000pt" height="1600.000000pt" viewBox="0 0 1600.000000 1600.000000"
 preserveAspectRatio="xMidYMid meet">
<metadata>
Created by potrace 1.14, written by Peter Selinger 2001-2017
</metadata>
<g transform="translate(0.000000,1600.000000) scale(0.100000,-0.100000)"
fill="#000000" stroke="none">
<path d="M6765 15063 c-54 -15 -139 -90 -220 -193 -33 -41 -74 -91 -92 -110
-86 -92 -166 -203 -339 -465 -201 -305 -281 -457 -357 -678 -50 -147 -52 -156
-52 -264 0 -108 1 -113 30 -154 32 -45 90 -81 131 -81 22 0 -5 -32 -174 -202
-201 -203 -253 -269 -402 -516 -15 -25 -57 -94 -93 -154 -73 -119 -255 -482
-310 -617 -91 -220 -151 -431 -191 -669 -76 -451 -93 -949 -41 -1201 15 -70
110 -331 151 -410 31 -62 95 -129 122 -129 15 0 32 -17 58 -57 190 -298 572
-679 847 -845 138 -83 340 -135 484 -125 102 7 149 21 237 69 38 21 71 38 73
38 2 0 9 4 16 10 7 5 48 33 92 62 75 48 158 112 215 164 14 13 39 35 55 50
277 242 308 280 464 561 130 234 154 301 190 513 41 248 43 308 32 830 -6 272
-13 504 -15 515 -3 11 -12 61 -21 110 -9 50 -24 117 -32 150 -8 33 -30 146
-49 250 -18 105 -42 226 -54 270 -12 44 -37 141 -56 215 -56 219 -130 451
-192 600 -91 221 -205 434 -301 560 -16 22 -17 28 -5 45 8 10 14 33 14 51 0
17 7 37 16 45 89 74 168 526 133 764 -8 56 -13 197 -14 375 -1 266 -2 290 -23
360 -39 128 -86 192 -179 242 -34 18 -116 30 -148 21z"/>
<path d="M8695 15018 c-92 -34 -167 -128 -180 -223 -4 -27 -15 -77 -25 -110
-10 -33 -26 -103 -35 -155 -9 -52 -22 -131 -30 -175 -8 -44 -17 -102 -20 -130
-3 -27 -17 -119 -31 -203 -22 -136 -25 -187 -26 -445 -2 -281 -1 -294 20 -349
24 -60 74 -113 118 -124 l25 -7 -23 -26 c-30 -33 -78 -98 -78 -105 0 -3 -15
-27 -34 -53 -54 -77 -150 -243 -180 -313 -56 -129 -63 -146 -86 -210 -12 -36
-40 -112 -61 -170 -55 -153 -155 -566 -184 -765 -9 -60 -22 -148 -30 -195 -23
-135 -63 -544 -80 -810 -9 -135 -20 -281 -25 -325 -40 -335 -2 -684 100 -910
105 -233 203 -394 314 -511 36 -38 66 -72 66 -75 0 -4 37 -35 83 -70 45 -35
84 -66 87 -69 3 -4 46 -37 95 -75 50 -38 108 -86 130 -108 59 -57 155 -101
300 -138 117 -31 143 -34 265 -33 143 0 297 21 396 53 98 31 197 70 239 93 47
25 197 154 310 265 145 144 415 522 502 703 65 136 154 357 190 475 13 44 35
105 48 135 31 74 35 94 56 277 29 257 -41 834 -131 1078 -48 131 -223 496
-326 681 -34 61 -88 164 -121 230 -59 119 -118 229 -154 288 -10 17 -22 38
-25 46 -4 8 -22 36 -41 63 -18 26 -33 50 -33 53 0 25 -330 454 -401 521 l-39
37 29 31 c62 64 118 209 106 274 -12 65 -113 349 -144 406 -32 58 -248 386
-261 395 -32 24 -157 235 -285 485 -138 268 -167 298 -289 302 -39 1 -84 -3
-101 -9z"/>
<path d="M3779 11527 c-105 -44 -126 -65 -237 -232 -103 -157 -264 -459 -346
-650 -71 -165 -136 -298 -155 -314 -10 -9 -16 -23 -13 -31 3 -8 1 -12 -2 -8
-4 3 -16 -1 -27 -10 -23 -20 -26 -72 -4 -72 18 0 18 -1 1 -47 -8 -21 -25 -76
-39 -123 -63 -212 -57 -316 22 -383 l30 -25 -52 -48 c-159 -147 -210 -254
-308 -644 -63 -251 -100 -425 -118 -555 -26 -190 -40 -756 -21 -885 5 -36 14
-128 20 -205 11 -142 17 -184 50 -335 38 -172 52 -236 65 -297 20 -92 108
-355 153 -458 92 -209 190 -399 231 -447 6 -7 25 -35 43 -61 40 -63 157 -180
225 -224 29 -20 53 -39 53 -43 0 -4 18 -15 40 -24 59 -23 261 -21 360 3 82 21
204 56 233 67 11 4 -6 -26 -42 -77 -74 -103 -121 -198 -155 -309 -13 -47 -38
-130 -55 -185 -33 -112 -52 -217 -77 -444 -15 -135 -15 -176 -5 -330 18 -260
49 -401 136 -626 26 -66 65 -174 87 -240 36 -107 102 -262 118 -275 3 -3 21
-34 39 -70 45 -89 129 -214 188 -280 27 -30 76 -95 109 -144 32 -49 66 -99 74
-111 30 -42 199 -260 217 -280 10 -11 34 -40 53 -65 19 -25 67 -79 106 -120
40 -41 85 -88 99 -105 102 -114 220 -225 346 -327 35 -28 66 -53 69 -57 8 -9
80 -64 131 -99 70 -47 140 -69 289 -93 124 -19 148 -19 295 -9 214 16 453 56
720 120 78 19 184 40 390 76 71 12 173 19 355 21 326 6 532 -7 725 -46 150
-29 216 -46 480 -121 148 -42 366 -91 525 -116 191 -31 466 -4 585 57 108 56
277 189 356 280 30 35 125 141 211 236 87 95 169 190 183 211 14 21 48 62 76
92 28 30 84 96 124 145 84 104 101 123 159 185 111 119 311 390 395 535 231
398 393 891 433 1312 13 134 0 357 -26 468 -8 33 -24 101 -35 150 -11 50 -32
123 -46 162 -14 40 -25 78 -25 83 0 12 -59 138 -87 185 -33 56 -66 100 -107
144 -23 24 -34 41 -26 38 8 -3 50 -20 93 -37 132 -52 280 -83 367 -76 205 17
285 49 394 158 179 181 402 612 496 958 139 517 154 608 179 1070 6 96 13 204
16 240 3 42 0 84 -9 120 -8 32 -17 134 -21 245 -9 281 -22 438 -46 576 -47
273 -71 360 -131 462 -15 26 -28 50 -28 53 0 3 -32 52 -70 109 -67 98 -112
147 -189 207 l-35 26 35 15 c19 8 44 25 56 38 26 28 58 107 68 166 16 100 -49
404 -120 558 -13 28 -33 73 -45 100 -75 172 -273 586 -292 610 -58 75 -237
292 -266 322 -99 102 -248 115 -344 30 -16 -13 -28 -27 -28 -31 0 -4 -10 -21
-22 -37 -21 -29 -23 -41 -23 -182 -1 -191 -21 -330 -90 -627 -60 -253 -105
-397 -213 -670 -52 -134 -64 -250 -35 -335 13 -39 14 -50 3 -53 -7 -3 -53 -32
-103 -65 -120 -81 -393 -350 -476 -471 -8 -12 -18 -23 -22 -26 -14 -11 -181
-266 -219 -335 -18 -33 -50 -87 -70 -120 -91 -150 -170 -343 -219 -537 -66
-260 -76 -340 -75 -623 0 -284 9 -347 74 -546 44 -131 59 -166 131 -285 27
-45 49 -85 49 -88 0 -10 70 -108 98 -138 45 -49 13 -30 -71 42 -95 80 -268
254 -354 355 -74 87 -272 374 -360 520 -33 56 -197 342 -243 425 -116 209
-172 284 -330 441 -180 179 -449 366 -614 426 -69 25 -378 100 -441 107 -33 4
-134 2 -225 -3 -179 -12 -300 -36 -455 -92 -85 -30 -253 -111 -265 -127 -3 -4
-21 -16 -40 -26 -19 -11 -37 -22 -40 -25 -3 -4 -36 -27 -75 -51 -81 -52 -90
-58 -165 -125 -31 -27 -87 -75 -124 -105 -62 -51 -137 -139 -182 -217 -11 -17
-60 -96 -111 -175 -50 -78 -114 -190 -141 -248 -46 -95 -158 -298 -172 -310
-3 -3 -28 -41 -55 -85 -66 -107 -107 -163 -205 -276 -128 -146 -350 -360 -350
-337 0 3 9 24 21 48 88 182 142 360 199 655 38 192 26 540 -26 805 -63 320
-137 559 -221 709 -49 89 -156 257 -192 301 -20 24 -48 64 -64 88 -47 73 -171
194 -417 406 -78 67 -247 186 -356 252 -17 10 -16 12 12 27 65 33 109 124 118
242 5 71 -21 171 -89 340 -49 123 -117 324 -134 400 -18 77 -16 360 3 552 19
190 15 231 -30 290 -31 41 -108 83 -164 89 -33 3 -60 -2 -101 -19z"/>
</g>
</svg>
